<?xml version="1.0" encoding="UTF-8" standalone="no"?>
<!-- Generator: Adobe Illustrator 15.1.0, SVG Export Plug-In . SVG Version: 6.00 Build 0)  -->

<svg
   xmlns:dc="http://purl.org/dc/elements/1.1/"
   xmlns:cc="http://creativecommons.org/ns#"
   xmlns:rdf="http://www.w3.org/1999/02/22-rdf-syntax-ns#"
   xmlns:svg="http://www.w3.org/2000/svg"
   xmlns="http://www.w3.org/2000/svg"
   xmlns:sodipodi="http://sodipodi.sourceforge.net/DTD/sodipodi-0.dtd"
   xmlns:inkscape="http://www.inkscape.org/namespaces/inkscape"
   version="1.1"
   id="Layer_1"
   x="0px"
   y="0px"
   width="457.316px"
   height="162.924px"
   viewBox="0 0 457.316 162.924"
   enable-background="new 0 0 457.316 162.924"
   xml:space="preserve"
   inkscape:version="0.91 r13725"
   sodipodi:docname="quaratio groen4.svg"><metadata
     id="metadata4197"><rdf:RDF><cc:Work
         rdf:about=""><dc:format>image/svg+xml</dc:format><dc:type
           rdf:resource="http://purl.org/dc/dcmitype/StillImage" /><dc:title></dc:title></cc:Work></rdf:RDF></metadata><defs
     id="defs4195" /><sodipodi:namedview
     pagecolor="#ffffff"
     bordercolor="#666666"
     borderopacity="1"
     objecttolerance="10"
     gridtolerance="10"
     guidetolerance="10"
     inkscape:pageopacity="0"
     inkscape:pageshadow="2"
     inkscape:window-width="1920"
     inkscape:window-height="1017"
     id="namedview4193"
     showgrid="false"
     inkscape:zoom="1.6028304"
     inkscape:cx="247.14732"
     inkscape:cy="81.212406"
     inkscape:window-x="-8"
     inkscape:window-y="-8"
     inkscape:window-maximized="1"
     inkscape:current-layer="Layer_1" /><rect
     x="103.28"
     y="85.754"
     transform="matrix(0.7071 -0.7071 0.7071 0.7071 -47.3705 114.4052)"
     width="22.268"
     height="57.26"
     id="rect4137"
     style="fill:#aad400" /><rect
     x="128.465"
     y="86.02"
     transform="matrix(0.7072 0.7071 -0.7071 0.7072 121.9456 -65.1297)"
     width="22.267"
     height="57.26"
     id="rect4139"
     style="fill:#aad400" /><polygon
     points="141.529,128.465 125.783,112.719 163.962,73.291 182.018,87.975 "
     id="polygon4141"
     style="fill:#aad400" /><rect
     x="163.965"
     y="73.262"
     width="95.436"
     height="22.268"
     id="rect4143"
     style="fill:#aad400" /><g
     id="g4145"
     style="fill:#aad400"><g
       id="g4147"
       style="fill:#aad400"><path
         d="M390.627,107.529h8.48v33.803h-8.48V107.529z"
         id="path4149"
         style="fill:#aad400" /><path
         d="M401.229,143.453h-12.723V105.41h12.723V143.453z M392.748,139.211h4.238V109.65h-4.238V139.211z"
         id="path4151"
         style="fill:#aad400" /></g><g
       id="g4153"
       style="fill:#aad400"><path
         d="M425.809,106.66c3.189,0,6.188,0.797,8.994,2.393s4.996,3.758,6.57,6.492s2.361,5.686,2.361,8.855    c0,3.189-0.793,6.172-2.377,8.947s-3.742,4.943-6.477,6.508s-5.748,2.346-9.041,2.346c-4.846,0-8.984-1.725-12.412-5.172    c-3.428-3.449-5.141-7.639-5.141-12.568c0-5.281,1.936-9.682,5.809-13.203C417.492,108.193,421.396,106.66,425.809,106.66z     M425.949,114.645c-2.637,0-4.83,0.916-6.582,2.75c-1.754,1.832-2.631,4.178-2.631,7.037c0,2.939,0.867,5.322,2.6,7.145    c1.73,1.822,3.926,2.734,6.582,2.734c2.654,0,4.865-0.922,6.629-2.766c1.762-1.844,2.645-4.213,2.645-7.113    s-0.867-5.256-2.6-7.068S428.646,114.645,425.949,114.645z"
         id="path4155"
         style="fill:#aad400" /><path
         d="M425.84,144.322c-5.41,0-10.092-1.951-13.916-5.799c-3.82-3.842-5.758-8.574-5.758-14.063    c0-5.877,2.188-10.848,6.504-14.771c3.789-3.42,8.207-5.15,13.139-5.15c3.547,0,6.924,0.898,10.041,2.67    c3.129,1.777,5.605,4.227,7.361,7.277c1.756,3.049,2.645,6.385,2.645,9.914c0,3.547-0.895,6.912-2.656,9.998    c-1.766,3.096-4.211,5.551-7.266,7.299C432.887,143.439,429.492,144.322,425.84,144.322z M425.809,108.781    c-3.904,0-7.27,1.326-10.291,4.053c-3.436,3.123-5.109,6.93-5.109,11.627c0,4.389,1.479,8.01,4.523,11.072    c3.043,3.061,6.609,4.547,10.908,4.547c2.904,0,5.592-0.695,7.988-2.064c2.422-1.387,4.281-3.258,5.688-5.721    c1.393-2.438,2.098-5.094,2.098-7.895c0-2.777-0.699-5.4-2.078-7.797c-1.395-2.422-3.285-4.289-5.781-5.707    C431.285,109.492,428.611,108.781,425.809,108.781z M425.918,136.432c-3.248,0-5.98-1.143-8.119-3.395    c-2.111-2.221-3.184-5.115-3.184-8.605c0-3.41,1.084-6.271,3.219-8.504c2.16-2.258,4.891-3.404,8.115-3.404    c3.285,0,6.037,1.135,8.176,3.375c2.115,2.213,3.188,5.082,3.188,8.533c0,3.449-1.088,6.336-3.234,8.58    C431.908,135.281,429.162,136.432,425.918,136.432z M425.949,116.766c-2.051,0-3.701,0.686-5.051,2.094    c-1.373,1.438-2.041,3.26-2.041,5.572c0,2.398,0.66,4.258,2.016,5.684c1.326,1.396,2.977,2.074,5.045,2.074    c2.07,0,3.738-0.689,5.096-2.109c1.385-1.447,2.057-3.295,2.057-5.648c0-2.355-0.658-4.188-2.012-5.604    C429.732,117.441,428.061,116.766,425.949,116.766z"
         id="path4157"
         style="fill:#aad400" /></g></g><g
     id="g4159"
     style="fill:#aad400"><g
       id="g4161"
       style="fill:#aad400"><path
         d="M349.127,107.529h8.48v33.803h-8.48v-3.574c-1.656,1.574-3.316,2.709-4.98,3.402c-1.666,0.693-3.471,1.041-5.416,1.041    c-4.365,0-8.141-1.693-11.326-5.08s-4.779-7.596-4.779-12.629c0-5.219,1.543-9.494,4.625-12.83    c3.082-3.334,6.826-5.002,11.232-5.002c2.027,0,3.93,0.385,5.709,1.15s3.424,1.914,4.936,3.447V107.529z M340.211,114.488    c-2.621,0-4.799,0.93-6.533,2.781c-1.734,1.854-2.602,4.23-2.602,7.131c0,2.92,0.883,5.322,2.646,7.207    c1.766,1.885,3.938,2.826,6.518,2.826c2.664,0,4.873-0.926,6.627-2.779s2.633-4.283,2.633-7.285c0-2.941-0.879-5.324-2.633-7.146    C345.113,115.402,342.895,114.488,340.211,114.488z"
         id="path4163"
         style="fill:#aad400" /><path
         d="M338.73,144.322c-4.953,0-9.283-1.934-12.871-5.748c-3.553-3.775-5.354-8.514-5.354-14.082    c0-5.744,1.744-10.545,5.186-14.27c3.486-3.771,7.789-5.684,12.791-5.684c2.307,0,4.51,0.445,6.547,1.322    c0.676,0.291,1.334,0.631,1.977,1.018v-1.469h12.723v38.043h-12.723v-1.379c-0.68,0.41-1.361,0.76-2.045,1.045    C343.045,143.918,340.947,144.322,338.73,144.322z M338.482,108.781c-3.822,0-6.988,1.414-9.676,4.32    c-2.732,2.957-4.061,6.682-4.061,11.391c0,4.516,1.375,8.17,4.203,11.176c2.793,2.971,5.992,4.412,9.781,4.412    c1.654,0,3.201-0.295,4.6-0.877c1.416-0.59,2.875-1.594,4.334-2.98l3.584-3.406v6.395h4.238V109.65h-4.238v6.781l-3.633-3.684    c-1.311-1.33-2.744-2.336-4.262-2.99C341.848,109.109,340.209,108.781,338.482,108.781z M340.24,136.555    c-3.178,0-5.891-1.176-8.064-3.498c-2.137-2.279-3.221-5.193-3.221-8.656c0-3.443,1.068-6.328,3.174-8.58    c2.143-2.291,4.863-3.451,8.082-3.451c3.27,0,6.023,1.139,8.184,3.383c2.141,2.225,3.225,5.123,3.225,8.617    c0,3.549-1.08,6.492-3.211,8.742C346.246,135.396,343.498,136.555,340.24,136.555z M340.211,116.609    c-2.027,0-3.658,0.689-4.984,2.109c-1.365,1.459-2.029,3.318-2.029,5.682c0,2.385,0.678,4.268,2.074,5.758    c1.359,1.449,2.984,2.156,4.969,2.156c2.074,0,3.738-0.693,5.086-2.119c1.381-1.457,2.053-3.363,2.053-5.826    c0-2.393-0.668-4.25-2.039-5.676C343.99,117.291,342.313,116.609,340.211,116.609z"
         id="path4165"
         style="fill:#aad400" /></g></g><g
     id="g4167"
     style="fill:#aad400"><path
       d="M250.084,38.678h21.307c11.672,0,19.98,1.043,24.932,3.125c4.949,2.082,8.932,5.543,11.945,10.379   c3.012,4.838,4.52,10.557,4.52,17.166c0,6.941-1.664,12.748-4.992,17.416c-3.328,4.67-8.342,8.201-15.045,10.596l25.029,46.973   h-21.986l-23.756-44.746h-1.842v44.746h-20.111V38.678z M270.195,79.977h6.301c6.396,0,10.801-0.84,13.209-2.521   c2.412-1.682,3.619-4.467,3.619-8.359c0-2.305-0.598-4.311-1.791-6.018c-1.195-1.705-2.795-2.93-4.797-3.674   c-2.006-0.746-5.682-1.117-11.027-1.117h-5.514V79.977z"
       id="path4169"
       style="fill:#aad400" /></g><g
     id="g4171"
     style="fill:#aad400"><path
       d="M366.865,61h15.279v22.443H382.1l0.063,13.15h-0.018v47.738h-15.279V96.594h-0.016l0.063-13.078l-0.047-0.072V61z"
       id="path4173"
       style="fill:#aad400" /></g><path
     d="M324.334,73.262c-0.605,4.863-2.172,9.074-4.701,12.623c-2.912,4.086-7.115,7.301-12.611,9.645h84.449V73.262H324.334z"
     id="path4175"
     style="fill:#aad400" /><path
     d="m 87.424415,111.41173 c -4.314897,2.03184 -8.9443,2.51721 -12.835793,2.40889 -21.79532,-0.60668 -40.074083,-19.913884 -39.00226,-42.120739 1.023199,-21.199408 17.037033,-38.109109 39.938104,-38.067415 22.423197,0.04082 39.150854,18.15487 39.938104,39.315208 0.1773,4.765621 -1.4529,11.527636 -2.9659,15.775636 l 16.41727,15.79237 c 5.97264,-7.95994 7.79669,-22.504954 7.79669,-31.619954 C 137.54762,39.96677 110.33228,11.768748 75.080363,11.889347 36.290616,12.02205 13.298002,44.79195 13.398814,73.337887 c 0.110554,31.304293 24.127154,60.786093 58.653434,62.491433 9.825745,0.48531 25.247833,-2.65961 31.906542,-6.94637 z"
     id="path4177"
     inkscape:connector-curvature="0"
     sodipodi:nodetypes="csssscccssscc"
     style="fill:#aad400" /><g
     id="g4179"
     style="fill:#aad400"><g
       id="g4181"
       style="fill:#aad400"><path
         d="M170.836,107.452h8.523v16.3c0,3.172,0.217,5.376,0.65,6.609c0.433,1.233,1.13,2.192,2.088,2.877    c0.961,0.684,2.144,1.026,3.546,1.026c1.403,0,2.595-0.337,3.576-1.01c0.979-0.674,1.707-1.664,2.183-2.97    c0.351-0.975,0.525-3.059,0.525-6.252v-16.58h8.431v14.34c0,5.91-0.465,9.954-1.39,12.13c-1.134,2.655-2.8,4.692-5.002,6.113    c-2.204,1.419-5.004,2.131-8.4,2.131c-3.685,0-6.666-0.831-8.939-2.489c-2.276-1.659-3.876-3.971-4.802-6.937    c-0.658-2.053-0.989-5.786-0.989-11.198V107.452z"
         id="path4183"
         style="fill:#aad400" /><path
         d="M185.567,144.157c-4.094,0-7.491-0.965-10.1-2.867c-2.616-1.906-4.476-4.582-5.53-7.952    c-0.724-2.259-1.078-6.121-1.078-11.796v-16.083h12.479v18.292c0,3.843,0.336,5.375,0.537,5.945    c0.298,0.843,0.744,1.47,1.367,1.915c0.623,0.444,1.41,0.661,2.402,0.661c1.005,0,1.81-0.217,2.461-0.665    c0.636-0.437,1.107-1.095,1.439-2.009c0.121-0.334,0.406-1.562,0.406-5.567v-18.572h12.386v16.332    c0,6.241-0.507,10.466-1.55,12.916c-1.286,3.016-3.222,5.373-5.753,7.005C192.514,143.335,189.33,144.157,185.567,144.157z     M172.815,109.445v12.098c0,6.451,0.484,9.316,0.893,10.585c0.808,2.585,2.141,4.521,4.079,5.935c1.92,1.401,4.538,2.11,7.78,2.11    c2.995,0,5.463-0.611,7.334-1.816c1.878-1.211,3.269-2.919,4.252-5.221c0.559-1.317,1.228-4.354,1.228-11.344v-12.347h-4.474    v14.586c0,4.605-0.369,6.161-0.646,6.931c-0.619,1.706-1.604,3.028-2.928,3.938c-1.312,0.9-2.889,1.357-4.689,1.357    c-1.814,0-3.394-0.469-4.688-1.393c-1.296-0.925-2.241-2.218-2.812-3.84c-0.52-1.482-0.762-3.793-0.762-7.273v-14.307H172.815z"
         id="path4185"
         style="fill:#aad400" /></g><g
       id="g4187"
       style="fill:#aad400"><path
         d="M233.617,107.452h8.431v33.842h-8.431v-3.576c-1.645,1.574-3.296,2.71-4.952,3.405c-1.654,0.694-3.447,1.043-5.38,1.043    c-4.34,0-8.092-1.695-11.26-5.085c-3.166-3.391-4.749-7.605-4.749-12.645c0-5.227,1.532-9.507,4.596-12.846    c3.065-3.339,6.786-5.008,11.165-5.008c2.016,0,3.908,0.383,5.676,1.15c1.768,0.768,3.402,1.918,4.904,3.454V107.452z     M224.754,114.42c-2.606,0-4.771,0.928-6.495,2.783c-1.722,1.856-2.585,4.235-2.585,7.139c0,2.923,0.877,5.329,2.633,7.215    c1.754,1.888,3.912,2.831,6.478,2.831c2.646,0,4.843-0.928,6.586-2.784c1.744-1.855,2.616-4.288,2.616-7.294    c0-2.944-0.872-5.33-2.616-7.154C229.627,115.333,227.421,114.42,224.754,114.42z"
         id="path4189"
         style="fill:#aad400" /><path
         d="M223.285,144.157c-4.888,0-9.16-1.922-12.7-5.712c-3.509-3.756-5.287-8.47-5.287-14.009    c0-5.717,1.724-10.495,5.121-14.198c3.44-3.748,7.686-5.648,12.618-5.648c2.276,0,4.449,0.441,6.458,1.313    c0.734,0.318,1.45,0.697,2.145,1.133v-1.576h12.386v37.827h-12.386v-1.484c-0.735,0.462-1.473,0.85-2.213,1.159    C227.535,143.755,225.468,144.157,223.285,144.157z M223.037,108.574c-3.838,0-7.016,1.429-9.713,4.368    c-2.739,2.985-4.07,6.745-4.07,11.494c0,4.555,1.379,8.245,4.213,11.279c2.802,3,6.014,4.458,9.818,4.458    c1.659,0,3.213-0.299,4.619-0.889c1.424-0.597,2.888-1.609,4.35-3.01l3.343-3.199v6.227h4.473v-29.856h-4.473v6.6l-3.387-3.461    c-1.315-1.343-2.755-2.359-4.281-3.022C226.418,108.906,224.773,108.574,223.037,108.574z M224.785,136.381    c-3.121,0-5.786-1.164-7.923-3.461c-2.1-2.258-3.166-5.145-3.166-8.577c0-3.412,1.052-6.271,3.121-8.5    c2.104-2.267,4.774-3.416,7.938-3.416c3.214,0,5.919,1.127,8.042,3.348c2.103,2.2,3.168,5.072,3.168,8.535    c0,3.52-1.062,6.434-3.156,8.664C230.685,135.234,227.985,136.381,224.785,136.381z M224.754,116.412    c-2.052,0-3.704,0.705-5.049,2.152c-1.381,1.487-2.054,3.377-2.054,5.778c0,2.422,0.687,4.336,2.099,5.853    c1.376,1.481,3.022,2.201,5.034,2.201c2.099,0,3.785-0.707,5.148-2.161c1.397-1.485,2.076-3.423,2.076-5.925    c0-2.432-0.675-4.319-2.063-5.771C228.579,117.108,226.88,116.412,224.754,116.412z"
         id="path4191"
         style="fill:#aad400" /></g></g><g
     inkscape:groupmode="layer"
     id="layer1"
     inkscape:label="Layer 1" /><g
     inkscape:groupmode="layer"
     id="layer2"
     inkscape:label="Layer 2"
     style="display:none;opacity:0.57999998"
     sodipodi:insensitive="true"><circle
       style="fill:#aad400;fill-opacity:1;stroke:#39a600;stroke-width:22.20059586;stroke-linecap:round;stroke-linejoin:round;stroke-miterlimit:4;stroke-dasharray:none;stroke-opacity:1"
       id="path4201"
       cx="75.33548"
       cy="73.862801"
       r="50.955433" /></g></svg>